<svg width="720" height="378" viewBox="0 0 720 378" xmlns="http://www.w3.org/2000/svg" lang="en" xml:lang="en"><rect x="2" y="2" stroke-width="4" rx="6" width="716" height="374" stroke="rgba(56,139,253,0.4)" fill="#0d1117"/><g font-weight="600" font-size="110pt" font-family="Verdana,Geneva,DejaVu Sans,sans-serif" text-rendering="geometricPrecision"><g transform="translate(0, 21)" fill="#c9d1d9"><g transform="translate(15, 0)"><g transform="scale(0.095)"><text x="0" y="132" textLength="3652" lengthAdjust="spacingAndGlyphs">Language Distribution in Public Repositories</text></g></g><g transform="translate(375, 21)"><circle cx="155" cy="155" r="155" fill="#ffffff"/></g><g transform="translate(376, 22)"><g><path fill-rule="evenodd" fill="#f1e05a" d="M 0.0,154.00000000000003 A 154 154 0 0 1 230.93646339117575 20.595425112711098 L 154,154 Z"/><path fill-rule="evenodd" fill="#b07219" d="M 230.93646339117575,20.595425112711098 A 154 154 0 0 1 285.03121174221803 234.91243136481575 L 154,154 Z"/><path fill-rule="evenodd" fill="#663399" d="M 285.03121174221803,234.91243136481575 A 154 154 0 0 1 96.73580388246647 296.9573777145225 L 154,154 Z"/><path fill-rule="evenodd" fill="#701516" d="M 96.73580388246647,296.9573777145225 A 154 154 0 0 1 28.26427120603735 242.918651050559 L 154,154 Z"/><path fill-rule="evenodd" fill="#e34c26" d="M 28.26427120603735,242.918651050559 A 154 154 0 0 1 0.4737313585588083 166.0699973917158 L 154,154 Z"/><path fill-rule="evenodd" fill="#c6538c" d="M 0.4737313585588083,166.0699973917158 A 154 154 0 0 1 1.3848778110059357e-05 154.06531020953483 L 154,154 Z"/><path fill-rule="evenodd" fill="#3B2F63" d="M 1.3848778110059357e-05,154.06531020953483 A 154 154 0 0 1 0.0 154.00000000000006 L 154,154 Z"/><animateTransform attributeName="transform" attributeType="XML" type="rotate" from="0 154 154" to="360 154 154" dur="10s" repeatCount="indefinite"/></g></g><g transform="translate(15, 21)"><rect x="0.5" y="0.5" rx="2" width="15" height="15" fill="#f1e05a" stroke-width="1" stroke="#ffffff"/><text transform="scale(0.095)" x="263" y="132" textLength="1516" lengthAdjust="spacingAndGlyphs">JavaScript 33.33%</text></g><g transform="translate(15, 42)"><rect x="0.5" y="0.5" rx="2" width="15" height="15" fill="#b07219" stroke-width="1" stroke="#ffffff"/><text transform="scale(0.095)" x="263" y="132" textLength="1038" lengthAdjust="spacingAndGlyphs">Java 25.48%</text></g><g transform="translate(15, 63)"><rect x="0.5" y="0.5" rx="2" width="15" height="15" fill="#663399" stroke-width="1" stroke="#ffffff"/><text transform="scale(0.095)" x="263" y="132" textLength="1008" lengthAdjust="spacingAndGlyphs">CSS 22.26%</text></g><g transform="translate(15, 84)"><rect x="0.5" y="0.5" rx="2" width="15" height="15" fill="#701516" stroke-width="1" stroke="#ffffff"/><text transform="scale(0.095)" x="263" y="132" textLength="999" lengthAdjust="spacingAndGlyphs">Ruby 9.14%</text></g><g transform="translate(15, 105)"><rect x="0.5" y="0.5" rx="2" width="15" height="15" fill="#e34c26" stroke-width="1" stroke="#ffffff"/><text transform="scale(0.095)" x="263" y="132" textLength="1036" lengthAdjust="spacingAndGlyphs">HTML 8.55%</text></g><g transform="translate(15, 126)"><rect x="0.5" y="0.5" rx="2" width="15" height="15" fill="#c6538c" stroke-width="1" stroke="#ffffff"/><text transform="scale(0.095)" x="263" y="132" textLength="1008" lengthAdjust="spacingAndGlyphs">SCSS 1.24%</text></g><g transform="translate(15, 147)"><rect x="0.5" y="0.5" rx="2" width="15" height="15" fill="#3B2F63" stroke-width="1" stroke="#ffffff"/><text transform="scale(0.095)" x="263" y="132" textLength="1188" lengthAdjust="spacingAndGlyphs">Procfile 0.01%</text></g></g></g></svg>